<svg width="14" height="14" viewBox="0 0 14 14" fill="none" xmlns="http://www.w3.org/2000/svg">
<path d="M10.9999 6.21334C10.8231 6.21334 10.6535 6.28358 10.5285 6.40861C10.4035 6.53363 10.3333 6.7032 10.3333 6.88001V11.6667C10.3333 11.8435 10.263 12.0131 10.138 12.1381C10.013 12.2631 9.8434 12.3333 9.66659 12.3333H2.33325C2.15644 12.3333 1.98687 12.2631 1.86185 12.1381C1.73682 12.0131 1.66659 11.8435 1.66659 11.6667V4.33334C1.66659 4.15653 1.73682 3.98696 1.86185 3.86194C1.98687 3.73691 2.15644 3.66668 2.33325 3.66668H7.11992C7.29673 3.66668 7.4663 3.59644 7.59132 3.47141C7.71635 3.34639 7.78659 3.17682 7.78659 3.00001C7.78659 2.8232 7.71635 2.65363 7.59132 2.52861C7.4663 2.40358 7.29673 2.33334 7.11992 2.33334H2.33325C1.80282 2.33334 1.29411 2.54406 0.919038 2.91913C0.543966 3.2942 0.333252 3.80291 0.333252 4.33334V11.6667C0.333252 12.1971 0.543966 12.7058 0.919038 13.0809C1.29411 13.456 1.80282 13.6667 2.33325 13.6667H9.66659C10.197 13.6667 10.7057 13.456 11.0808 13.0809C11.4559 12.7058 11.6666 12.1971 11.6666 11.6667V6.88001C11.6666 6.7032 11.5963 6.53363 11.4713 6.40861C11.3463 6.28358 11.1767 6.21334 10.9999 6.21334ZM13.6133 0.746677C13.5456 0.583777 13.4162 0.454327 13.2533 0.386677C13.1731 0.352516 13.087 0.334397 12.9999 0.333344H8.99992C8.82311 0.333344 8.65354 0.403581 8.52851 0.528606C8.40349 0.65363 8.33325 0.823199 8.33325 1.00001C8.33325 1.17682 8.40349 1.34639 8.52851 1.47141C8.65354 1.59644 8.82311 1.66668 8.99992 1.66668H11.3933L4.52659 8.52668C4.4641 8.58865 4.4145 8.66239 4.38066 8.74363C4.34681 8.82487 4.32939 8.912 4.32939 9.00001C4.32939 9.08802 4.34681 9.17516 4.38066 9.2564C4.4145 9.33763 4.4641 9.41137 4.52659 9.47334C4.58856 9.53583 4.66229 9.58543 4.74353 9.61927C4.82477 9.65312 4.91191 9.67054 4.99992 9.67054C5.08793 9.67054 5.17506 9.65312 5.2563 9.61927C5.33754 9.58543 5.41128 9.53583 5.47325 9.47334L12.3333 2.60668V5.00001C12.3333 5.17682 12.4035 5.34639 12.5285 5.47141C12.6535 5.59644 12.8231 5.66668 12.9999 5.66668C13.1767 5.66668 13.3463 5.59644 13.4713 5.47141C13.5963 5.34639 13.6666 5.17682 13.6666 5.00001V1.00001C13.6655 0.912892 13.6474 0.826825 13.6133 0.746677Z" fill="#F9FAFB"/>
</svg>
