<svg width="38" height="24" viewBox="0 0 38 24" fill="none" xmlns="http://www.w3.org/2000/svg">
<circle cx="12" cy="12" r="12" fill="#EDF0F4"/>
<path d="M11.967 4.80029L11.8716 5.12455V14.5329L11.967 14.6281L16.3342 12.0467L11.967 4.80029Z" fill="#343434"/>
<path d="M11.9671 4.80029L7.59985 12.0467L11.9671 14.6281V10.0616V4.80029Z" fill="#8C8C8C"/>
<path d="M11.9674 15.4546L11.9136 15.5202V18.8716L11.9674 19.0287L16.3372 12.8745L11.9674 15.4546Z" fill="#3C3C3B"/>
<path d="M11.9671 19.0287V15.4546L7.59985 12.8745L11.9671 19.0287Z" fill="#8C8C8C"/>
<path d="M11.9673 14.6281L16.3344 12.0466L11.9673 10.0615V14.6281Z" fill="#141414"/>
<path d="M7.59985 12.0466L11.9671 14.6281V10.0615L7.59985 12.0466Z" fill="#393939"/>
<path d="M37.6383 14.9029C36.0356 21.3315 29.5244 25.2438 23.095 23.6407C16.6683 22.0381 12.756 15.5265 14.3594 9.09837C15.9614 2.66903 22.4725 -1.24361 28.8999 0.359081C35.3289 1.96177 39.241 8.47405 37.6381 14.903L37.6382 14.9029H37.6383Z" fill="url(#paint0_linear_279_12427)"/>
<path fill-rule="evenodd" clip-rule="evenodd" d="M31.2901 10.2913C31.5289 8.69437 30.3131 7.83596 28.6506 7.26331L29.1899 5.10012L27.8731 4.772L27.3481 6.87824C27.0019 6.7919 26.6464 6.71055 26.2931 6.6299L26.8219 4.50976L25.5059 4.18164L24.9663 6.34413C24.6798 6.27891 24.3985 6.21444 24.1255 6.14652L24.127 6.13972L22.3111 5.68626L21.9608 7.09268C21.9608 7.09268 22.9378 7.31663 22.9172 7.33041C23.4504 7.4635 23.5469 7.81649 23.5308 8.09627L22.9165 10.5607C22.9532 10.57 23.0008 10.5835 23.0534 10.6046L23.0151 10.595L23.0151 10.595C22.9826 10.5869 22.9489 10.5785 22.9142 10.5702L22.0531 14.0224C21.9879 14.1844 21.8225 14.4275 21.4497 14.3352C21.4629 14.3543 20.4926 14.0964 20.4926 14.0964L19.8389 15.6037L21.5525 16.0309C21.7401 16.0779 21.9256 16.1263 22.1091 16.1741L22.1091 16.1741C22.2374 16.2076 22.3648 16.2408 22.4913 16.2731L21.9464 18.4611L23.2617 18.7892L23.8013 16.6245C24.1606 16.722 24.5093 16.812 24.8507 16.8968L24.3129 19.0514L25.6297 19.3795L26.1746 17.1956C28.42 17.6205 30.1084 17.4492 30.8191 15.4182C31.3917 13.783 30.7906 12.8399 29.6093 12.2248C30.4697 12.0264 31.1177 11.4605 31.2905 10.2915L31.2901 10.2912L31.2901 10.2913ZM28.2812 14.5098C27.9079 16.01 25.5596 15.3898 24.4852 15.106C24.3885 15.0804 24.3022 15.0576 24.2285 15.0394L24.9516 12.1406C25.0414 12.163 25.1511 12.1877 25.2753 12.2155L25.2754 12.2156C26.3868 12.465 28.6637 12.976 28.2813 14.5098H28.2812ZM25.4991 10.873C26.3948 11.1121 28.3489 11.6336 28.6892 10.27H28.6894C29.0369 8.8755 27.1378 8.45506 26.2103 8.24972C26.106 8.22662 26.014 8.20624 25.9388 8.1875L25.2832 10.8165C25.3451 10.8319 25.4177 10.8513 25.4991 10.873Z" fill="white"/>
<defs>
<linearGradient id="paint0_linear_279_12427" x1="14" y1="0" x2="14" y2="24" gradientUnits="userSpaceOnUse">
<stop stop-color="#FCC538"/>
<stop offset="1" stop-color="#F7931A"/>
</linearGradient>
</defs>
</svg>
