<svg width="8" height="10" viewBox="0 0 8 10" fill="none" xmlns="http://www.w3.org/2000/svg">
<path d="M4.38341 6.92501C4.37429 6.89846 4.36168 6.87324 4.34591 6.85001C4.33053 6.82818 4.31383 6.80731 4.29591 6.78751C4.23732 6.7297 4.16292 6.69053 4.08209 6.67496C4.00126 6.65938 3.91763 6.6681 3.84175 6.70001C3.7906 6.71984 3.74387 6.74958 3.70425 6.78751C3.68633 6.80731 3.66963 6.82818 3.65425 6.85001C3.63848 6.87324 3.62587 6.89846 3.61675 6.92501C3.60473 6.94863 3.59631 6.97391 3.59175 7.00001C3.58989 7.02776 3.58989 7.0556 3.59175 7.08334C3.59034 7.138 3.60176 7.19223 3.62508 7.24168C3.64618 7.29217 3.67578 7.33868 3.71258 7.37918C3.78916 7.45515 3.89222 7.49847 4.00008 7.50001C4.05474 7.50142 4.10896 7.49 4.15841 7.46668C4.21012 7.44796 4.25708 7.41811 4.29596 7.37923C4.33485 7.34034 4.3647 7.29338 4.38341 7.24168C4.40674 7.19223 4.41816 7.138 4.41675 7.08334C4.4186 7.0556 4.4186 7.02776 4.41675 7.00001C4.40957 6.97344 4.39833 6.94814 4.38341 6.92501ZM7.33341 3.72501C7.32907 3.68673 7.32069 3.64902 7.30841 3.61251V3.57501C7.28838 3.53217 7.26166 3.49279 7.22925 3.45834L4.72925 0.958343C4.6948 0.925934 4.65542 0.899211 4.61258 0.879177H4.57508C4.53275 0.854902 4.48601 0.83932 4.43758 0.833344H1.91675C1.58523 0.833344 1.26729 0.96504 1.03286 1.19946C0.798444 1.43388 0.666748 1.75182 0.666748 2.08334V7.91668C0.666748 8.2482 0.798444 8.56614 1.03286 8.80056C1.26729 9.03498 1.58523 9.16668 1.91675 9.16668H6.08341C6.41493 9.16668 6.73288 9.03498 6.9673 8.80056C7.20172 8.56614 7.33341 8.2482 7.33341 7.91668V3.75001C7.33341 3.75001 7.33341 3.75001 7.33341 3.72501ZM4.83341 2.25418L5.91258 3.33334H5.25008C5.13957 3.33334 5.03359 3.28944 4.95545 3.2113C4.87731 3.13316 4.83341 3.02718 4.83341 2.91668V2.25418ZM6.50008 7.91668C6.50008 8.02718 6.45618 8.13317 6.37804 8.21131C6.2999 8.28945 6.19392 8.33334 6.08341 8.33334H1.91675C1.80624 8.33334 1.70026 8.28945 1.62212 8.21131C1.54398 8.13317 1.50008 8.02718 1.50008 7.91668V2.08334C1.50008 1.97284 1.54398 1.86686 1.62212 1.78872C1.70026 1.71058 1.80624 1.66668 1.91675 1.66668H4.00008V2.91668C4.00008 3.2482 4.13178 3.56614 4.3662 3.80056C4.60062 4.03498 4.91856 4.16668 5.25008 4.16668H6.50008V7.91668ZM4.00008 4.58334C3.88957 4.58334 3.78359 4.62724 3.70545 4.70538C3.62731 4.78352 3.58341 4.8895 3.58341 5.00001V5.83334C3.58341 5.94385 3.62731 6.04983 3.70545 6.12797C3.78359 6.20611 3.88957 6.25001 4.00008 6.25001C4.11059 6.25001 4.21657 6.20611 4.29471 6.12797C4.37285 6.04983 4.41675 5.94385 4.41675 5.83334V5.00001C4.41675 4.8895 4.37285 4.78352 4.29471 4.70538C4.21657 4.62724 4.11059 4.58334 4.00008 4.58334Z" fill="#6CFFD3"/>
</svg>
