<svg width="34" height="30" viewBox="0 0 34 30" fill="none" xmlns="http://www.w3.org/2000/svg">
<path d="M32.3666 15C33.1962 14.0873 33.6592 12.9001 33.6666 11.6667C33.6666 10.3406 33.1398 9.06881 32.2021 8.13113C31.2644 7.19345 29.9927 6.66667 28.6666 6.66667H20.0333C20.2995 5.91363 20.3815 5.10777 20.2723 4.31654C20.1631 3.52532 19.866 2.77177 19.4058 2.11897C18.9455 1.46617 18.3356 0.933128 17.6271 0.564463C16.9185 0.195799 16.132 0.00224252 15.3333 0H5.33325C4.00717 0 2.7354 0.526784 1.79772 1.46447C0.860036 2.40215 0.333252 3.67392 0.333252 5C0.340603 6.23342 0.803603 7.4206 1.63325 8.33333C0.813327 9.25004 0.360032 10.4368 0.360032 11.6667C0.360032 12.8966 0.813327 14.0833 1.63325 15C0.813327 15.9167 0.360032 17.1034 0.360032 18.3333C0.360032 19.5632 0.813327 20.75 1.63325 21.6667C0.803603 22.5794 0.340603 23.7666 0.333252 25C0.333252 26.3261 0.860036 27.5979 1.79772 28.5355C2.7354 29.4732 4.00717 30 5.33325 30H28.6666C29.6295 29.9949 30.5705 29.7118 31.3764 29.1847C32.1823 28.6577 32.8189 27.9092 33.2097 27.0291C33.6004 26.149 33.7288 25.1748 33.5792 24.2235C33.4296 23.2722 33.0086 22.3844 32.3666 21.6667C33.1865 20.75 33.6398 19.5632 33.6398 18.3333C33.6398 17.1034 33.1865 15.9167 32.3666 15ZM15.3333 26.6667H5.33325C4.89122 26.6667 4.4673 26.4911 4.15474 26.1785C3.84218 25.866 3.66659 25.442 3.66659 25C3.66659 24.558 3.84218 24.134 4.15474 23.8215C4.4673 23.5089 4.89122 23.3333 5.33325 23.3333H15.3333C15.7753 23.3333 16.1992 23.5089 16.5118 23.8215C16.8243 24.134 16.9999 24.558 16.9999 25C16.9999 25.442 16.8243 25.866 16.5118 26.1785C16.1992 26.4911 15.7753 26.6667 15.3333 26.6667ZM15.3333 20H5.33325C4.89122 20 4.4673 19.8244 4.15474 19.5118C3.84218 19.1993 3.66659 18.7754 3.66659 18.3333C3.66659 17.8913 3.84218 17.4674 4.15474 17.1548C4.4673 16.8423 4.89122 16.6667 5.33325 16.6667H15.3333C15.7753 16.6667 16.1992 16.8423 16.5118 17.1548C16.8243 17.4674 16.9999 17.8913 16.9999 18.3333C16.9999 18.7754 16.8243 19.1993 16.5118 19.5118C16.1992 19.8244 15.7753 20 15.3333 20ZM15.3333 13.3333H5.33325C4.89122 13.3333 4.4673 13.1577 4.15474 12.8452C3.84218 12.5326 3.66659 12.1087 3.66659 11.6667C3.66659 11.2246 3.84218 10.8007 4.15474 10.4882C4.4673 10.1756 4.89122 10 5.33325 10H15.3333C15.7753 10 16.1992 10.1756 16.5118 10.4882C16.8243 10.8007 16.9999 11.2246 16.9999 11.6667C16.9999 12.1087 16.8243 12.5326 16.5118 12.8452C16.1992 13.1577 15.7753 13.3333 15.3333 13.3333ZM15.3333 6.66667H5.33325C4.89122 6.66667 4.4673 6.49107 4.15474 6.17851C3.84218 5.86595 3.66659 5.44203 3.66659 5C3.66659 4.55797 3.84218 4.13405 4.15474 3.82149C4.4673 3.50893 4.89122 3.33333 5.33325 3.33333H15.3333C15.7753 3.33333 16.1992 3.50893 16.5118 3.82149C16.8243 4.13405 16.9999 4.55797 16.9999 5C16.9999 5.44203 16.8243 5.86595 16.5118 6.17851C16.1992 6.49107 15.7753 6.66667 15.3333 6.66667ZM29.8166 26.1833C29.6688 26.3392 29.4903 26.4626 29.2924 26.5458C29.0944 26.629 28.8813 26.6702 28.6666 26.6667H20.0333C20.4329 25.5915 20.4329 24.4085 20.0333 23.3333H28.6666C29.1086 23.3333 29.5325 23.5089 29.8451 23.8215C30.1577 24.134 30.3333 24.558 30.3333 25C30.3302 25.2217 30.2829 25.4405 30.1942 25.6437C30.1055 25.8469 29.9771 26.0304 29.8166 26.1833ZM29.8166 19.5167C29.6688 19.6725 29.4903 19.7959 29.2924 19.8791C29.0944 19.9623 28.8813 20.0035 28.6666 20H20.0333C20.4329 18.9248 20.4329 17.7418 20.0333 16.6667H28.6666C29.1086 16.6667 29.5325 16.8423 29.8451 17.1548C30.1577 17.4674 30.3333 17.8913 30.3333 18.3333C30.3302 18.555 30.2829 18.7739 30.1942 18.9771C30.1055 19.1803 29.9771 19.3637 29.8166 19.5167ZM29.8166 12.85C29.6688 13.0058 29.4903 13.1293 29.2924 13.2125C29.0944 13.2957 28.8813 13.3368 28.6666 13.3333H20.0333C20.4329 12.2582 20.4329 11.0752 20.0333 10H28.6666C29.1086 10 29.5325 10.1756 29.8451 10.4882C30.1577 10.8007 30.3333 11.2246 30.3333 11.6667C30.3302 11.8884 30.2829 12.1072 30.1942 12.3104C30.1055 12.5136 29.9771 12.697 29.8166 12.85Z" fill="#F9FAFB"/>
</svg>
