<svg width="15" height="16" viewBox="0 0 15 16" fill="none" xmlns="http://www.w3.org/2000/svg">
<path fill-rule="evenodd" clip-rule="evenodd" d="M10.0879 1.05224C10.8845 0.824654 11.7147 1.28589 11.9423 2.08245C11.9806 2.21646 12 2.35515 12 2.49453V3.75023H13.5C14.3284 3.75023 15 4.4218 15 5.25023V14.2502C15 15.0787 14.3284 15.7502 13.5 15.7502H1.5C0.671573 15.7502 0 15.0787 0 14.2502H0.0200279C0.00671392 14.1696 0 14.0879 0 14.0059V5.06595C0 4.39623 0.443966 3.80766 1.08792 3.62367L10.0879 1.05224ZM6.10504 14.2502H13.5V8.25023H12V11.4345C12 12.1042 11.556 12.6928 10.9121 12.8768L6.10504 14.2502ZM13.5 5.25023V6.75023H12V5.25023H13.5ZM1.5 5.06594V14.0059L10.5 11.4345V2.49451L1.5 5.06594ZM9 6.75023C9 7.16444 8.66421 7.50023 8.25 7.50023C7.83579 7.50023 7.5 7.16444 7.5 6.75023C7.5 6.33602 7.83579 6.00023 8.25 6.00023C8.66421 6.00023 9 6.33602 9 6.75023Z" fill="#204C3F"/>
</svg>
