<svg width="16" height="16" viewBox="0 0 16 16" fill="none" xmlns="http://www.w3.org/2000/svg">
<circle cx="8" cy="8" r="8" fill="#0075BF"/>
<path d="M8.95212 12C8.74916 12 8.54167 11.9676 8.33871 11.9075L6.51651 11.3526C6.31804 11.2924 6.20529 11.0797 6.26392 10.8762C6.32256 10.6728 6.53003 10.5571 6.72849 10.6173L8.55069 11.1722C8.90701 11.2832 9.27686 11.2416 9.5926 11.0612C9.88125 10.8994 10.0842 10.6311 10.1699 10.3167C10.2601 9.98368 10.2105 9.63222 10.0301 9.31774C9.84969 8.99866 9.55651 8.76279 9.20921 8.66106L7.2923 8.07835C6.18725 7.74077 5.52873 6.57536 5.8219 5.47934C5.96173 4.96139 6.29098 4.5313 6.76006 4.2677C7.2517 3.9856 7.82452 3.92548 8.37929 4.09197L10.1474 4.62842C10.3458 4.68854 10.4586 4.90127 10.4 5.10475C10.3413 5.30823 10.1338 5.42385 9.93538 5.36373L8.1628 4.82728C7.80648 4.71629 7.43662 4.75791 7.1209 4.93827C6.83222 5.10013 6.62926 5.36835 6.54357 5.68282C6.45336 6.01579 6.50296 6.36726 6.68339 6.68174C6.86381 7.00083 7.15698 7.23669 7.50429 7.33843L9.4167 7.92113C10.5217 8.25872 11.1802 9.42411 10.8871 10.5201C10.7473 11.0381 10.418 11.4682 9.94892 11.7318C9.6422 11.9075 9.29942 12 8.95212 12Z" fill="white"/>
<path d="M12.1273 11.2879C12.0957 11.2879 12.0596 11.2833 12.028 11.274C11.8296 11.2185 11.7123 11.0058 11.7664 10.8023C11.9694 10.0485 11.8567 9.24844 11.4552 8.54089C11.0493 7.8287 10.3953 7.30612 9.61949 7.07026L7.46803 6.41821C7.26959 6.35808 7.15681 6.14534 7.21546 5.94187C7.27409 5.73838 7.48157 5.62277 7.68002 5.68289L9.83148 6.33958C10.7922 6.63092 11.595 7.27837 12.1002 8.15705C12.6054 9.04495 12.7452 10.0577 12.4881 11.0104C12.443 11.1769 12.2942 11.2879 12.1273 11.2879Z" fill="white"/>
<path d="M9.04231 10.3863C9.00623 10.3863 8.97014 10.3817 8.93406 10.3725L6.78262 9.71578C5.8219 9.42443 5.01905 8.77699 4.51388 7.89831C4.00872 7.01502 3.8689 6.00223 4.12599 5.04494C4.18011 4.84146 4.38759 4.72122 4.58605 4.77672C4.78451 4.83221 4.90178 5.04494 4.84765 5.24842C4.64468 6.00223 4.75744 6.80228 5.15887 7.50985C5.56481 8.22202 6.21881 8.74461 6.99461 8.98046L9.14607 9.63715C9.34451 9.69728 9.45728 9.91 9.39864 10.1135C9.34903 10.28 9.20019 10.3863 9.04231 10.3863Z" fill="white"/>
</svg>
