<svg width="12" height="12" viewBox="0 0 12 12" fill="none" xmlns="http://www.w3.org/2000/svg">
<path d="M11.271 1L7.05005 4.12499L7.83495 2.28333L11.271 1Z" fill="#E17726" stroke="#E17726" stroke-width="0.073694" stroke-linecap="round" stroke-linejoin="round"/>
<path d="M1.5354 1L5.71874 4.15416L4.97142 2.28333L1.5354 1Z" fill="#E27625" stroke="#E27625" stroke-width="0.073694" stroke-linecap="round" stroke-linejoin="round"/>
<path d="M9.75198 8.24582L8.62891 9.96248L11.0337 10.625L11.7226 8.28332L9.75198 8.24582Z" fill="#E27625" stroke="#E27625" stroke-width="0.073694" stroke-linecap="round" stroke-linejoin="round"/>
<path d="M1.08862 8.28332L1.77332 10.625L4.17394 9.96248L3.05504 8.24582L1.08862 8.28332Z" fill="#E27625" stroke="#E27625" stroke-width="0.073694" stroke-linecap="round" stroke-linejoin="round"/>
<path d="M4.04446 5.34582L3.37646 6.35416L5.75621 6.46249L5.67688 3.89999L4.04446 5.34582Z" fill="#E27625" stroke="#E27625" stroke-width="0.073694" stroke-linecap="round" stroke-linejoin="round"/>
<path d="M8.76204 5.34585L7.10457 3.87085L7.05029 6.46251L9.43004 6.35418L8.76204 5.34585Z" fill="#E27625" stroke="#E27625" stroke-width="0.073694" stroke-linecap="round" stroke-linejoin="round"/>
<path d="M4.17383 9.96248L5.6142 9.26665L4.37423 8.29999L4.17383 9.96248Z" fill="#E27625" stroke="#E27625" stroke-width="0.073694" stroke-linecap="round" stroke-linejoin="round"/>
<path d="M7.19238 9.26665L8.62858 9.96248L8.43236 8.29999L7.19238 9.26665Z" fill="#E27625" stroke="#E27625" stroke-width="0.073694" stroke-linecap="round" stroke-linejoin="round"/>
<path d="M8.62858 9.96249L7.19238 9.26666L7.30928 10.2L7.29676 10.5958L8.62858 9.96249Z" fill="#D5BFB2" stroke="#D5BFB2" stroke-width="0.073694" stroke-linecap="round" stroke-linejoin="round"/>
<path d="M4.17383 9.96249L5.50983 10.5958L5.50148 10.2L5.6142 9.26666L4.17383 9.96249Z" fill="#D5BFB2" stroke="#D5BFB2" stroke-width="0.073694" stroke-linecap="round" stroke-linejoin="round"/>
<path d="M5.53438 7.68332L4.34033 7.33333L5.18368 6.94583L5.53438 7.68332Z" fill="#233447" stroke="#233447" stroke-width="0.073694" stroke-linecap="round" stroke-linejoin="round"/>
<path d="M7.27173 7.68332L7.62243 6.94583L8.46995 7.33333L7.27173 7.68332Z" fill="#233447" stroke="#233447" stroke-width="0.073694" stroke-linecap="round" stroke-linejoin="round"/>
<path d="M4.17334 9.96239L4.38209 8.24573L3.05444 8.28323L4.17334 9.96239Z" fill="#CC6228" stroke="#CC6228" stroke-width="0.073694" stroke-linecap="round" stroke-linejoin="round"/>
<path d="M8.4231 8.24573L8.62767 9.96239L9.75074 8.28323L8.4231 8.24573Z" fill="#CC6228" stroke="#CC6228" stroke-width="0.073694" stroke-linecap="round" stroke-linejoin="round"/>
<path d="M9.42955 6.3541L7.0498 6.46243L7.27108 7.68326L7.62178 6.94576L8.4693 7.33326L9.42955 6.3541Z" fill="#CC6228" stroke="#CC6228" stroke-width="0.073694" stroke-linecap="round" stroke-linejoin="round"/>
<path d="M4.34016 7.33326L5.1835 6.94576L5.5342 7.68326L5.75548 6.46243L3.37573 6.3541L4.34016 7.33326Z" fill="#CC6228" stroke="#CC6228" stroke-width="0.073694" stroke-linecap="round" stroke-linejoin="round"/>
<path d="M3.37646 6.35403L4.37429 8.29986L4.34089 7.3332L3.37646 6.35403Z" fill="#E27525" stroke="#E27525" stroke-width="0.073694" stroke-linecap="round" stroke-linejoin="round"/>
<path d="M8.4697 7.3332L8.43213 8.29987L9.42995 6.35403L8.4697 7.3332Z" fill="#E27525" stroke="#E27525" stroke-width="0.073694" stroke-linecap="round" stroke-linejoin="round"/>
<path d="M5.75643 6.4624L5.53516 7.68323L5.81488 9.1249L5.8775 7.2249L5.75643 6.4624Z" fill="#E27525" stroke="#E27525" stroke-width="0.073694" stroke-linecap="round" stroke-linejoin="round"/>
<path d="M7.05049 6.4624L6.93359 7.22073L6.99204 9.1249L7.27177 7.68323L7.05049 6.4624Z" fill="#E27525" stroke="#E27525" stroke-width="0.073694" stroke-linecap="round" stroke-linejoin="round"/>
<path d="M7.27118 7.68328L6.99146 9.12494L7.19185 9.26661L8.43183 8.29995L8.4694 7.33328L7.27118 7.68328Z" fill="#F5841F" stroke="#F5841F" stroke-width="0.073694" stroke-linecap="round" stroke-linejoin="round"/>
<path d="M4.34033 7.33328L4.37373 8.29995L5.61371 9.26661L5.81411 9.12494L5.53438 7.68328L4.34033 7.33328Z" fill="#F5841F" stroke="#F5841F" stroke-width="0.073694" stroke-linecap="round" stroke-linejoin="round"/>
<path d="M7.29599 10.5958L7.30852 10.2L7.19997 10.1083H5.60512L5.50074 10.2L5.50909 10.5958L4.1731 9.96249L4.64069 10.3458L5.58842 11H7.21249L8.16439 10.3458L8.62782 9.96249L7.29599 10.5958Z" fill="#C0AC9D" stroke="#C0AC9D" stroke-width="0.073694" stroke-linecap="round" stroke-linejoin="round"/>
<path d="M7.1916 9.26661L6.9912 9.12494H5.81386L5.61346 9.26661L5.50073 10.1999L5.60511 10.1083H7.19995L7.3085 10.1999L7.1916 9.26661Z" fill="#161616" stroke="#161616" stroke-width="0.073694" stroke-linecap="round" stroke-linejoin="round"/>
<path d="M11.4501 4.32916L11.805 2.60416L11.2706 1L7.19165 4.02083L8.76145 5.34582L10.9784 5.99165L11.4668 5.42082L11.2539 5.26666L11.5921 4.95832L11.3332 4.75832L11.6714 4.49999L11.4501 4.32916Z" fill="#763E1A" stroke="#763E1A" stroke-width="0.073694" stroke-linecap="round" stroke-linejoin="round"/>
<path d="M1 2.60416L1.35905 4.32916L1.12942 4.49999L1.47177 4.75832L1.21292 4.95832L1.5511 5.26666L1.33817 5.42082L1.82665 5.99165L4.04357 5.34582L5.61337 4.02083L1.5344 1L1 2.60416Z" fill="#763E1A" stroke="#763E1A" stroke-width="0.073694" stroke-linecap="round" stroke-linejoin="round"/>
<path d="M10.9786 5.99163L8.76171 5.34579L9.42971 6.35413L8.43188 8.29995L9.75118 8.28329H11.7218L10.9786 5.99163Z" fill="#F5841F" stroke="#F5841F" stroke-width="0.073694" stroke-linecap="round" stroke-linejoin="round"/>
<path d="M4.04378 5.34579L1.82686 5.99163L1.08789 8.28329H3.05431L4.37361 8.29995L3.37579 6.35413L4.04378 5.34579Z" fill="#F5841F" stroke="#F5841F" stroke-width="0.073694" stroke-linecap="round" stroke-linejoin="round"/>
<path d="M7.04985 6.46248L7.1918 4.02082L7.83475 2.28333H4.9707L5.61365 4.02082L5.7556 6.46248L5.80988 7.22915L5.81405 9.12497H6.9914L6.99557 7.22915L7.04985 6.46248Z" fill="#F5841F" stroke="#F5841F" stroke-width="0.073694" stroke-linecap="round" stroke-linejoin="round"/>
</svg>
