<svg width="158" height="36" viewBox="0 0 158 36" fill="none" xmlns="http://www.w3.org/2000/svg">
<path d="M22.0202 35.5739C21.1177 35.5739 20.1951 35.43 19.2926 35.1626L11.1897 32.6949C10.3072 32.4276 9.8058 31.4816 10.0665 30.5769C10.3273 29.672 11.2498 29.1579 12.1323 29.4252L20.2352 31.8929C21.8197 32.3865 23.4643 32.2014 24.8683 31.3994C26.1519 30.6796 27.0544 29.4869 27.4355 28.0886C27.8367 26.6079 27.616 25.045 26.8137 23.6466C26.0115 22.2278 24.7078 21.1789 23.1635 20.7265L14.6395 18.1354C9.72557 16.6343 6.7973 11.452 8.10098 6.57825C8.72273 4.27504 10.1868 2.36256 12.2727 1.1904C14.4589 -0.0640257 17.0061 -0.331362 19.473 0.408954L27.3352 2.79442C28.2177 3.06175 28.7191 4.00771 28.4584 4.91254C28.1976 5.81738 27.2751 6.33148 26.3925 6.06415L18.5104 3.67869C16.9259 3.18514 15.2812 3.37022 13.8773 4.17223C12.5936 4.89198 11.6911 6.08471 11.31 7.48309C10.9089 8.96371 11.1295 10.5266 11.9318 11.925C12.7341 13.3439 14.0377 14.3927 15.5821 14.8451L24.0861 17.4362C28.9999 18.9374 31.9282 24.1196 30.6245 28.9934C30.0028 31.2966 28.5386 33.2091 26.4528 34.3813C25.0889 35.1626 23.5646 35.5739 22.0202 35.5739Z" fill="white"/>
<path d="M36.14 32.4071C35.9997 32.4071 35.8392 32.3866 35.6988 32.3455C34.8163 32.0987 34.2948 31.1527 34.5355 30.2478C35.4381 26.8959 34.9367 23.3383 33.1516 20.192C31.3465 17.025 28.4383 14.7012 24.9886 13.6525L15.4216 10.7529C14.5391 10.4855 14.0377 9.53955 14.2985 8.63477C14.5592 7.72993 15.4818 7.21583 16.3642 7.48316L25.9312 10.4033C30.2033 11.6988 33.7734 14.5778 36.0197 18.4851C38.266 22.4334 38.8878 26.937 37.7446 31.1733C37.544 31.9136 36.8821 32.4071 36.14 32.4071Z" fill="white"/>
<path d="M22.4219 28.397C22.2614 28.397 22.101 28.3764 21.9405 28.3353L12.3736 25.4153C8.1015 24.1197 4.53144 21.2407 2.2851 17.3334C0.0387663 13.4057 -0.582988 8.90205 0.560237 4.64524C0.800915 3.74041 1.72352 3.20574 2.60601 3.45251C3.4885 3.69928 4.00997 4.64524 3.76928 5.55007C2.86674 8.90205 3.36816 12.4597 5.15319 15.6061C6.95829 18.7729 9.86649 21.0967 13.3162 22.1455L22.8832 25.0656C23.7657 25.333 24.2671 26.2789 24.0063 27.1838C23.7858 27.9241 23.1239 28.397 22.4219 28.397Z" fill="white"/>
<path d="M56.6021 18.8356C56.6021 19.5508 56.3209 20.1332 55.7584 20.583C55.2072 21.0213 54.5155 21.2404 53.6831 21.2404C52.7944 21.2404 51.9676 20.9924 51.2026 20.4965L51.6582 19.5104C52.2994 20.0064 52.9968 20.2543 53.7505 20.2543C54.3017 20.2543 54.7348 20.1332 55.0498 19.891C55.3647 19.6373 55.5222 19.3027 55.5222 18.8876C55.5222 18.1956 54.9823 17.6708 53.9024 17.3132C52.3163 16.7943 51.5233 15.9984 51.5233 14.9258C51.5233 14.2799 51.7707 13.7494 52.2657 13.3341C52.7718 12.9074 53.4243 12.694 54.223 12.694C55.0217 12.694 55.7134 12.8785 56.2984 13.2476L55.8428 14.1126C55.2804 13.8243 54.7348 13.6802 54.2061 13.6802C53.7224 13.6802 53.3287 13.7955 53.025 14.0261C52.7325 14.2453 52.5863 14.5164 52.5863 14.8393C52.5863 15.4736 53.1262 15.9696 54.2061 16.3271C55.0835 16.6154 55.7022 16.95 56.0621 17.3306C56.4221 17.7112 56.6021 18.2128 56.6021 18.8356Z" fill="white"/>
<path d="M58.9512 21.0847H57.8882V12.8497H58.9512V21.0847Z" fill="white"/>
<path d="M68.9924 21.0847H67.9632L67.5245 14.7009L64.9935 21.0847H64.2848L61.7538 14.7009L61.3151 21.0847H60.2859L60.8595 12.8497H61.9732L64.6391 19.7007L67.3051 12.8497H68.4188L68.9924 21.0847Z" fill="white"/>
<path d="M75.6439 15.2199C75.6439 16.0157 75.3289 16.6616 74.6991 17.1575C74.0804 17.642 73.2592 17.8842 72.2356 17.8842C71.9768 17.8842 71.6957 17.8669 71.3919 17.8322V21.0847H70.3289V12.9709C71.1388 12.8325 71.8531 12.7632 72.4718 12.7632C73.4616 12.7632 74.2379 12.9939 74.8003 13.4553C75.3627 13.9051 75.6439 14.4932 75.6439 15.2199ZM74.5809 15.2718C74.5809 14.2222 73.8723 13.6974 72.4549 13.6974C72.0725 13.6974 71.7181 13.7147 71.3919 13.7494V16.8461C71.7744 16.9153 72.0949 16.95 72.3536 16.95C73.8385 16.95 74.5809 16.3905 74.5809 15.2718Z" fill="white"/>
<path d="M81.898 21.0847H76.9036V12.8497H77.9666V20.1504H81.898V21.0847Z" fill="white"/>
<path d="M84.0303 21.0847H82.9673V12.8497H84.0303V21.0847Z" fill="white"/>
<path d="M90.5884 21.0847H89.5254V12.8497H94.469V13.7839H90.5884V16.379H94.2329V17.2959H90.5884V21.0847Z" fill="white"/>
<path d="M96.6355 21.0847H95.5725V12.8497H96.6355V21.0847Z" fill="white"/>
<path d="M104.601 21.0847H103.589L99.3872 14.4067V21.0847H98.3242V12.8497H99.3872L103.538 19.3547V12.8497H104.601V21.0847Z" fill="white"/>
<path d="M113.067 21.0848H111.902L110.839 18.334H107.616L106.57 21.0848H105.423L108.797 12.7286H109.709L113.067 21.0848ZM110.434 17.3997L109.253 13.9743L108.004 17.3997H110.434Z" fill="white"/>
<path d="M120.173 21.0847H119.16L114.959 14.4067V21.0847H113.896V12.8497H114.959L119.11 19.3547V12.8497H120.173V21.0847Z" fill="white"/>
<path d="M127.929 20.6522C127.108 21.0213 126.13 21.2058 124.993 21.2058C123.925 21.2058 123.064 20.8195 122.411 20.0467C121.771 19.2625 121.45 18.2417 121.45 16.9846C121.45 15.739 121.764 14.7355 122.395 13.9743C123.093 13.1439 124.065 12.7286 125.314 12.7286C126.27 12.7286 127.142 12.8959 127.929 13.2304L127.592 14.0954C126.917 13.807 126.169 13.6629 125.348 13.6629C124.313 13.6629 123.553 14.0551 123.07 14.8393C122.71 15.416 122.53 16.1426 122.53 17.0191C122.53 17.8265 122.726 18.53 123.121 19.1298C123.616 19.891 124.313 20.2716 125.212 20.2716C126.146 20.2716 126.956 20.0986 127.642 19.7526L127.929 20.6522Z" fill="white"/>
<path d="M133.913 21.0847H129.138V12.8497H133.913V13.7839H130.201V16.2752H133.508V17.2094H130.201V20.1504H133.913V21.0847Z" fill="white"/>
<path d="M143.986 21.0847H138.992V12.8497H140.055V20.1504H143.986V21.0847Z" fill="white"/>
<path d="M151.839 21.0848H150.674L149.611 18.334H146.389L145.343 21.0848H144.195L147.569 12.7286H148.481L151.839 21.0848ZM149.207 17.3997L148.025 13.9743L146.777 17.3997H149.207Z" fill="white"/>
<path d="M158 18.6972C158 20.3581 156.808 21.1885 154.423 21.1885C153.917 21.1885 153.332 21.1135 152.668 20.9636V13.0054C153.365 12.8325 154.007 12.746 154.592 12.746C156.65 12.746 157.68 13.4725 157.68 14.9258C157.68 15.664 157.342 16.2463 156.668 16.6731C157.556 17.0999 158 17.7745 158 18.6972ZM156.617 14.9431C156.617 14.1126 155.942 13.6975 154.592 13.6975C154.356 13.6975 154.069 13.7147 153.731 13.7494V16.2752H154.93C155.424 16.2752 155.829 16.1599 156.144 15.9292C156.459 15.687 156.617 15.3583 156.617 14.9431ZM156.954 18.7146C156.954 18.1609 156.696 17.7515 156.178 17.4863C155.785 17.2902 155.295 17.1922 154.71 17.1922H153.731V20.2024C153.923 20.237 154.204 20.2543 154.575 20.2543C155.306 20.2543 155.886 20.1217 156.313 19.8564C156.74 19.5911 156.954 19.2105 156.954 18.7146Z" fill="white"/>
</svg>
