<svg width="330" height="62" viewBox="0 0 330 62" fill="none" xmlns="http://www.w3.org/2000/svg">
<path d="M22.0202 35.5739C21.1177 35.5739 20.1951 35.43 19.2926 35.1626L11.1897 32.6949C10.3072 32.4276 9.8058 31.4816 10.0665 30.5769C10.3273 29.672 11.2498 29.1579 12.1323 29.4252L20.2352 31.8929C21.8197 32.3865 23.4643 32.2014 24.8683 31.3994C26.1519 30.6796 27.0544 29.4869 27.4355 28.0886C27.8367 26.6079 27.616 25.045 26.8137 23.6466C26.0115 22.2278 24.7078 21.1789 23.1635 20.7265L14.6395 18.1354C9.72557 16.6343 6.7973 11.452 8.10098 6.57825C8.72273 4.27504 10.1868 2.36256 12.2727 1.1904C14.4589 -0.0640257 17.0061 -0.331362 19.473 0.408954L27.3352 2.79442C28.2177 3.06175 28.7191 4.00771 28.4584 4.91254C28.1976 5.81738 27.2751 6.33148 26.3925 6.06415L18.5104 3.67869C16.9259 3.18514 15.2812 3.37022 13.8773 4.17223C12.5936 4.89198 11.6911 6.08471 11.31 7.48309C10.9089 8.96371 11.1295 10.5266 11.9318 11.925C12.7341 13.3439 14.0377 14.3927 15.5821 14.8451L24.0861 17.4362C28.9999 18.9374 31.9282 24.1196 30.6245 28.9934C30.0028 31.2966 28.5386 33.2091 26.4528 34.3813C25.0889 35.1626 23.5646 35.5739 22.0202 35.5739Z" fill="white"/>
<path d="M36.14 32.4071C35.9997 32.4071 35.8392 32.3866 35.6988 32.3455C34.8163 32.0987 34.2948 31.1527 34.5355 30.2478C35.4381 26.8959 34.9367 23.3383 33.1516 20.192C31.3465 17.025 28.4383 14.7012 24.9886 13.6525L15.4216 10.7529C14.5391 10.4855 14.0377 9.53955 14.2985 8.63477C14.5592 7.72993 15.4818 7.21583 16.3642 7.48316L25.9312 10.4033C30.2033 11.6988 33.7734 14.5778 36.0197 18.4851C38.266 22.4334 38.8878 26.937 37.7446 31.1733C37.544 31.9136 36.8821 32.4071 36.14 32.4071Z" fill="white"/>
<path d="M22.4219 28.3971C22.2614 28.3971 22.101 28.3765 21.9405 28.3353L12.3736 25.4153C8.1015 24.1197 4.53144 21.2407 2.2851 17.3335C0.0387663 13.4057 -0.582988 8.90208 0.560237 4.64527C0.800915 3.74044 1.72352 3.20577 2.60601 3.45254C3.4885 3.69931 4.00997 4.64527 3.76928 5.5501C2.86674 8.90208 3.36816 12.4597 5.15319 15.6061C6.95829 18.7729 9.86649 21.0967 13.3162 22.1455L22.8832 25.0656C23.7657 25.333 24.2671 26.2789 24.0063 27.1838C23.7858 27.9241 23.1239 28.3971 22.4219 28.3971Z" fill="white"/>
<path d="M56.6021 18.8357C56.6021 19.5508 56.3209 20.1332 55.7584 20.583C55.2072 21.0213 54.5155 21.2405 53.6831 21.2405C52.7944 21.2405 51.9676 20.9924 51.2026 20.4965L51.6582 19.5104C52.2994 20.0064 52.9968 20.2543 53.7505 20.2543C54.3017 20.2543 54.7348 20.1332 55.0498 19.891C55.3647 19.6373 55.5222 19.3028 55.5222 18.8876C55.5222 18.1956 54.9823 17.6708 53.9024 17.3132C52.3163 16.7943 51.5233 15.9984 51.5233 14.9258C51.5233 14.28 51.7707 13.7494 52.2657 13.3341C52.7718 12.9075 53.4243 12.6941 54.223 12.6941C55.0217 12.6941 55.7134 12.8786 56.2984 13.2477L55.8428 14.1126C55.2804 13.8244 54.7348 13.6802 54.2061 13.6802C53.7224 13.6802 53.3287 13.7955 53.025 14.0262C52.7325 14.2453 52.5863 14.5164 52.5863 14.8393C52.5863 15.4736 53.1262 15.9696 54.2061 16.3271C55.0835 16.6155 55.7022 16.95 56.0621 17.3306C56.4221 17.7112 56.6021 18.2129 56.6021 18.8357Z" fill="white"/>
<path d="M58.9512 21.0848H57.8882V12.8498H58.9512V21.0848Z" fill="white"/>
<path d="M68.9924 21.0848H67.9632L67.5245 14.7009L64.9935 21.0848H64.2848L61.7538 14.7009L61.3151 21.0848H60.2859L60.8595 12.8498H61.9732L64.6391 19.7007L67.3051 12.8498H68.4188L68.9924 21.0848Z" fill="white"/>
<path d="M75.6439 15.2199C75.6439 16.0157 75.3289 16.6616 74.6991 17.1575C74.0804 17.642 73.2592 17.8842 72.2356 17.8842C71.9768 17.8842 71.6957 17.8669 71.3919 17.8323V21.0848H70.3289V12.9709C71.1388 12.8325 71.8531 12.7633 72.4718 12.7633C73.4616 12.7633 74.2379 12.9939 74.8003 13.4553C75.3627 13.9051 75.6439 14.4933 75.6439 15.2199ZM74.5809 15.2718C74.5809 14.2223 73.8723 13.6975 72.4549 13.6975C72.0725 13.6975 71.7181 13.7148 71.3919 13.7494V16.8461C71.7744 16.9153 72.0949 16.95 72.3536 16.95C73.8385 16.95 74.5809 16.3905 74.5809 15.2718Z" fill="white"/>
<path d="M81.898 21.0848H76.9036V12.8498H77.9666V20.1505H81.898V21.0848Z" fill="white"/>
<path d="M84.0303 21.0848H82.9673V12.8498H84.0303V21.0848Z" fill="white"/>
<path d="M90.5884 21.0848H89.5254V12.8498H94.469V13.784H90.5884V16.379H94.2329V17.2959H90.5884V21.0848Z" fill="white"/>
<path d="M96.6355 21.0848H95.5725V12.8498H96.6355V21.0848Z" fill="white"/>
<path d="M104.601 21.0848H103.589L99.3872 14.4068V21.0848H98.3242V12.8498H99.3872L103.538 19.3547V12.8498H104.601V21.0848Z" fill="white"/>
<path d="M113.067 21.0847H111.902L110.839 18.334H107.616L106.57 21.0847H105.423L108.797 12.7286H109.709L113.067 21.0847ZM110.434 17.3997L109.253 13.9743L108.004 17.3997H110.434Z" fill="white"/>
<path d="M120.173 21.0848H119.16L114.959 14.4068V21.0848H113.896V12.8498H114.959L119.11 19.3547V12.8498H120.173V21.0848Z" fill="white"/>
<path d="M127.929 20.6522C127.108 21.0213 126.13 21.2058 124.993 21.2058C123.925 21.2058 123.064 20.8194 122.411 20.0467C121.771 19.2624 121.45 18.2416 121.45 16.9845C121.45 15.7389 121.764 14.7355 122.395 13.9743C123.093 13.1439 124.065 12.7286 125.314 12.7286C126.27 12.7286 127.142 12.8959 127.929 13.2304L127.592 14.0953C126.917 13.807 126.169 13.6629 125.348 13.6629C124.313 13.6629 123.553 14.055 123.07 14.8393C122.71 15.416 122.53 16.1426 122.53 17.0191C122.53 17.8265 122.726 18.53 123.121 19.1298C123.616 19.891 124.313 20.2716 125.212 20.2716C126.146 20.2716 126.956 20.0986 127.642 19.7526L127.929 20.6522Z" fill="white"/>
<path d="M133.913 21.0848H129.138V12.8498H133.913V13.784H130.201V16.2753H133.508V17.2095H130.201V20.1505H133.913V21.0848Z" fill="white"/>
<path d="M143.986 21.0848H138.992V12.8498H140.055V20.1505H143.986V21.0848Z" fill="white"/>
<path d="M151.839 21.0847H150.674L149.611 18.334H146.389L145.343 21.0847H144.195L147.569 12.7286H148.481L151.839 21.0847ZM149.207 17.3997L148.025 13.9743L146.777 17.3997H149.207Z" fill="white"/>
<path d="M158 18.6972C158 20.3581 156.808 21.1885 154.423 21.1885C153.917 21.1885 153.332 21.1135 152.668 20.9636V13.0054C153.365 12.8325 154.007 12.746 154.592 12.746C156.65 12.746 157.68 13.4725 157.68 14.9258C157.68 15.664 157.342 16.2463 156.668 16.6731C157.556 17.0999 158 17.7745 158 18.6972ZM156.617 14.9431C156.617 14.1126 155.942 13.6975 154.592 13.6975C154.356 13.6975 154.069 13.7147 153.731 13.7494V16.2752H154.93C155.424 16.2752 155.829 16.1599 156.144 15.9292C156.459 15.687 156.617 15.3583 156.617 14.9431ZM156.954 18.7146C156.954 18.1609 156.696 17.7515 156.178 17.4863C155.785 17.2902 155.295 17.1922 154.71 17.1922H153.731V20.2024C153.923 20.237 154.204 20.2543 154.575 20.2543C155.306 20.2543 155.886 20.1217 156.313 19.8564C156.74 19.5911 156.954 19.2105 156.954 18.7146Z" fill="white"/>
<path d="M6.98175 57V48.6H8.15775L11.1818 54.456L14.1818 48.6H15.3698V57H14.3618V50.4L11.5538 55.8H10.7978L7.98975 50.412V57H6.98175ZM19.0619 57.144C18.5659 57.144 18.1539 57.06 17.8259 56.892C17.4979 56.724 17.2539 56.5 17.0939 56.22C16.9339 55.94 16.8539 55.636 16.8539 55.308C16.8539 54.7 17.0859 54.232 17.5499 53.904C18.0139 53.576 18.6459 53.412 19.4459 53.412H21.0539V53.34C21.0539 52.82 20.9179 52.428 20.6459 52.164C20.3739 51.892 20.0099 51.756 19.5539 51.756C19.1619 51.756 18.8219 51.856 18.5339 52.056C18.2539 52.248 18.0779 52.532 18.0059 52.908H16.9739C17.0139 52.476 17.1579 52.112 17.4059 51.816C17.6619 51.52 17.9779 51.296 18.3539 51.144C18.7299 50.984 19.1299 50.904 19.5539 50.904C20.3859 50.904 21.0099 51.128 21.4259 51.576C21.8499 52.016 22.0619 52.604 22.0619 53.34V57H21.1619L21.1019 55.932C20.9339 56.268 20.6859 56.556 20.3579 56.796C20.0379 57.028 19.6059 57.144 19.0619 57.144ZM19.2179 56.292C19.6019 56.292 19.9299 56.192 20.2019 55.992C20.4819 55.792 20.6939 55.532 20.8379 55.212C20.9819 54.892 21.0539 54.556 21.0539 54.204V54.192H19.5299C18.9379 54.192 18.5179 54.296 18.2699 54.504C18.0299 54.704 17.9099 54.956 17.9099 55.26C17.9099 55.572 18.0219 55.824 18.2459 56.016C18.4779 56.2 18.8019 56.292 19.2179 56.292ZM23.5741 57V48.36H24.5821V53.556L27.0181 51.048H28.2541L25.6141 53.736L28.5901 57H27.3061L24.5821 53.916V57H23.5741ZM31.8634 57.144C31.2954 57.144 30.7914 57.016 30.3514 56.76C29.9114 56.496 29.5634 56.132 29.3074 55.668C29.0594 55.204 28.9354 54.656 28.9354 54.024C28.9354 53.4 29.0594 52.856 29.3074 52.392C29.5554 51.92 29.8994 51.556 30.3394 51.3C30.7874 51.036 31.3034 50.904 31.8874 50.904C32.4634 50.904 32.9594 51.036 33.3754 51.3C33.7994 51.556 34.1234 51.896 34.3474 52.32C34.5714 52.744 34.6834 53.2 34.6834 53.688C34.6834 53.776 34.6794 53.864 34.6714 53.952C34.6714 54.04 34.6714 54.14 34.6714 54.252H29.9314C29.9554 54.708 30.0594 55.088 30.2434 55.392C30.4354 55.688 30.6714 55.912 30.9514 56.064C31.2394 56.216 31.5434 56.292 31.8634 56.292C32.2794 56.292 32.6274 56.196 32.9074 56.004C33.1874 55.812 33.3914 55.552 33.5194 55.224H34.5154C34.3554 55.776 34.0474 56.236 33.5914 56.604C33.1434 56.964 32.5674 57.144 31.8634 57.144ZM31.8634 51.756C31.3834 51.756 30.9554 51.904 30.5794 52.2C30.2114 52.488 29.9994 52.912 29.9434 53.472H33.6874C33.6634 52.936 33.4794 52.516 33.1354 52.212C32.7914 51.908 32.3674 51.756 31.8634 51.756ZM39.2552 57V48.6H41.8352C43.3152 48.6 44.4032 48.976 45.0992 49.728C45.8032 50.48 46.1552 51.512 46.1552 52.824C46.1552 54.112 45.8032 55.132 45.0992 55.884C44.4032 56.628 43.3152 57 41.8352 57H39.2552ZM40.2632 56.16H41.8112C42.6272 56.16 43.2752 56.028 43.7552 55.764C44.2432 55.492 44.5912 55.108 44.7992 54.612C45.0072 54.108 45.1112 53.512 45.1112 52.824C45.1112 52.12 45.0072 51.516 44.7992 51.012C44.5912 50.508 44.2432 50.12 43.7552 49.848C43.2752 49.576 42.6272 49.44 41.8112 49.44H40.2632V56.16ZM50.2267 57.144C49.6587 57.144 49.1547 57.016 48.7147 56.76C48.2747 56.496 47.9267 56.132 47.6707 55.668C47.4227 55.204 47.2987 54.656 47.2987 54.024C47.2987 53.4 47.4227 52.856 47.6707 52.392C47.9187 51.92 48.2627 51.556 48.7027 51.3C49.1507 51.036 49.6667 50.904 50.2507 50.904C50.8267 50.904 51.3227 51.036 51.7387 51.3C52.1627 51.556 52.4867 51.896 52.7107 52.32C52.9347 52.744 53.0467 53.2 53.0467 53.688C53.0467 53.776 53.0427 53.864 53.0347 53.952C53.0347 54.04 53.0347 54.14 53.0347 54.252H48.2947C48.3187 54.708 48.4227 55.088 48.6067 55.392C48.7987 55.688 49.0347 55.912 49.3147 56.064C49.6027 56.216 49.9067 56.292 50.2267 56.292C50.6427 56.292 50.9907 56.196 51.2707 56.004C51.5507 55.812 51.7547 55.552 51.8827 55.224H52.8787C52.7187 55.776 52.4107 56.236 51.9547 56.604C51.5067 56.964 50.9307 57.144 50.2267 57.144ZM50.2267 51.756C49.7467 51.756 49.3187 51.904 48.9427 52.2C48.5747 52.488 48.3627 52.912 48.3067 53.472H52.0507C52.0267 52.936 51.8427 52.516 51.4987 52.212C51.1547 51.908 50.7307 51.756 50.2267 51.756ZM54.4427 57V48.6H59.5547V49.428H55.4507V52.38H58.9427V53.196H55.4507V57H54.4427ZM61.4048 49.728C61.2048 49.728 61.0368 49.664 60.9008 49.536C60.7728 49.4 60.7088 49.232 60.7088 49.032C60.7088 48.84 60.7728 48.68 60.9008 48.552C61.0368 48.424 61.2048 48.36 61.4048 48.36C61.5968 48.36 61.7608 48.424 61.8968 48.552C62.0328 48.68 62.1008 48.84 62.1008 49.032C62.1008 49.232 62.0328 49.4 61.8968 49.536C61.7608 49.664 61.5968 49.728 61.4048 49.728ZM60.9008 57V51.048H61.9088V57H60.9008ZM66.8997 57V48.6H67.9077V57H66.8997ZM69.6288 57V51.048H70.5408L70.6008 52.116C70.7928 51.74 71.0688 51.444 71.4288 51.228C71.7888 51.012 72.1968 50.904 72.6528 50.904C73.3568 50.904 73.9168 51.12 74.3328 51.552C74.7568 51.976 74.9688 52.632 74.9688 53.52V57H73.9608V53.628C73.9608 52.388 73.4488 51.768 72.4248 51.768C71.9128 51.768 71.4848 51.956 71.1408 52.332C70.8048 52.7 70.6368 53.228 70.6368 53.916V57H69.6288ZM78.0948 57L75.8388 51.048H76.8948L78.6828 56.028L80.4828 51.048H81.5148L79.2588 57H78.0948ZM85.0079 57.144C84.4399 57.144 83.9359 57.016 83.4959 56.76C83.0559 56.496 82.7079 56.132 82.4519 55.668C82.2039 55.204 82.0799 54.656 82.0799 54.024C82.0799 53.4 82.2039 52.856 82.4519 52.392C82.6999 51.92 83.0439 51.556 83.4839 51.3C83.9319 51.036 84.4479 50.904 85.0319 50.904C85.6079 50.904 86.1039 51.036 86.5199 51.3C86.9439 51.556 87.2679 51.896 87.4919 52.32C87.7159 52.744 87.8279 53.2 87.8279 53.688C87.8279 53.776 87.8239 53.864 87.8159 53.952C87.8159 54.04 87.8159 54.14 87.8159 54.252H83.0759C83.0999 54.708 83.2039 55.088 83.3879 55.392C83.5799 55.688 83.8159 55.912 84.0959 56.064C84.3839 56.216 84.6879 56.292 85.0079 56.292C85.4239 56.292 85.7719 56.196 86.0519 56.004C86.3319 55.812 86.5359 55.552 86.6639 55.224H87.6599C87.4999 55.776 87.1919 56.236 86.7359 56.604C86.2879 56.964 85.7119 57.144 85.0079 57.144ZM85.0079 51.756C84.5279 51.756 84.0999 51.904 83.7239 52.2C83.3559 52.488 83.1439 52.912 83.0879 53.472H86.8319C86.8079 52.936 86.6239 52.516 86.2799 52.212C85.9359 51.908 85.5119 51.756 85.0079 51.756ZM91.4439 57.144C90.7319 57.144 90.1399 56.964 89.6679 56.604C89.1959 56.244 88.9199 55.756 88.8399 55.14H89.8719C89.9359 55.452 90.0999 55.724 90.3639 55.956C90.6359 56.18 90.9999 56.292 91.4559 56.292C91.8799 56.292 92.1919 56.204 92.3919 56.028C92.5919 55.844 92.6919 55.628 92.6919 55.38C92.6919 55.02 92.5599 54.78 92.2959 54.66C92.0399 54.54 91.6759 54.432 91.2039 54.336C90.8839 54.272 90.5639 54.18 90.2439 54.06C89.9239 53.94 89.6559 53.772 89.4399 53.556C89.2239 53.332 89.1159 53.04 89.1159 52.68C89.1159 52.16 89.3079 51.736 89.6919 51.408C90.0839 51.072 90.6119 50.904 91.2759 50.904C91.9079 50.904 92.4239 51.064 92.8239 51.384C93.2319 51.696 93.4679 52.144 93.5319 52.728H92.5359C92.4959 52.424 92.3639 52.188 92.1399 52.02C91.9239 51.844 91.6319 51.756 91.2639 51.756C90.9039 51.756 90.6239 51.832 90.4239 51.984C90.2319 52.136 90.1359 52.336 90.1359 52.584C90.1359 52.824 90.2599 53.012 90.5079 53.148C90.7639 53.284 91.1079 53.4 91.5399 53.496C91.9079 53.576 92.2559 53.676 92.5839 53.796C92.9199 53.908 93.1919 54.08 93.3999 54.312C93.6159 54.536 93.7239 54.864 93.7239 55.296C93.7319 55.832 93.5279 56.276 93.1119 56.628C92.7039 56.972 92.1479 57.144 91.4439 57.144ZM97.2464 57C96.7024 57 96.2744 56.868 95.9624 56.604C95.6504 56.34 95.4944 55.864 95.4944 55.176V51.9H94.4624V51.048H95.4944L95.6264 49.62H96.5024V51.048H98.2544V51.9H96.5024V55.176C96.5024 55.552 96.5784 55.808 96.7304 55.944C96.8824 56.072 97.1504 56.136 97.5344 56.136H98.1584V57H97.2464ZM99.535 57V51.048H100.447L100.519 51.912C100.711 51.592 100.967 51.344 101.287 51.168C101.607 50.992 101.967 50.904 102.367 50.904C102.839 50.904 103.243 51 103.579 51.192C103.923 51.384 104.187 51.676 104.371 52.068C104.579 51.708 104.863 51.424 105.223 51.216C105.591 51.008 105.987 50.904 106.411 50.904C107.123 50.904 107.691 51.12 108.115 51.552C108.539 51.976 108.751 52.632 108.751 53.52V57H107.755V53.628C107.755 53.012 107.631 52.548 107.383 52.236C107.135 51.924 106.779 51.768 106.315 51.768C105.835 51.768 105.435 51.956 105.115 52.332C104.803 52.7 104.647 53.228 104.647 53.916V57H103.639V53.628C103.639 53.012 103.515 52.548 103.267 52.236C103.019 51.924 102.663 51.768 102.199 51.768C101.727 51.768 101.331 51.956 101.011 52.332C100.699 52.7 100.543 53.228 100.543 53.916V57H99.535ZM112.945 57.144C112.377 57.144 111.873 57.016 111.433 56.76C110.993 56.496 110.645 56.132 110.389 55.668C110.141 55.204 110.017 54.656 110.017 54.024C110.017 53.4 110.141 52.856 110.389 52.392C110.637 51.92 110.981 51.556 111.421 51.3C111.869 51.036 112.385 50.904 112.969 50.904C113.545 50.904 114.041 51.036 114.457 51.3C114.881 51.556 115.205 51.896 115.429 52.32C115.653 52.744 115.765 53.2 115.765 53.688C115.765 53.776 115.761 53.864 115.753 53.952C115.753 54.04 115.753 54.14 115.753 54.252H111.013C111.037 54.708 111.141 55.088 111.325 55.392C111.517 55.688 111.753 55.912 112.033 56.064C112.321 56.216 112.625 56.292 112.945 56.292C113.361 56.292 113.709 56.196 113.989 56.004C114.269 55.812 114.473 55.552 114.601 55.224H115.597C115.437 55.776 115.129 56.236 114.673 56.604C114.225 56.964 113.649 57.144 112.945 57.144ZM112.945 51.756C112.465 51.756 112.037 51.904 111.661 52.2C111.293 52.488 111.081 52.912 111.025 53.472H114.769C114.745 52.936 114.561 52.516 114.217 52.212C113.873 51.908 113.449 51.756 112.945 51.756ZM117.101 57V51.048H118.013L118.073 52.116C118.265 51.74 118.541 51.444 118.901 51.228C119.261 51.012 119.669 50.904 120.125 50.904C120.829 50.904 121.389 51.12 121.805 51.552C122.229 51.976 122.441 52.632 122.441 53.52V57H121.433V53.628C121.433 52.388 120.921 51.768 119.897 51.768C119.385 51.768 118.957 51.956 118.613 52.332C118.277 52.7 118.109 53.228 118.109 53.916V57H117.101ZM126.321 57C125.777 57 125.349 56.868 125.037 56.604C124.725 56.34 124.569 55.864 124.569 55.176V51.9H123.537V51.048H124.569L124.701 49.62H125.577V51.048H127.329V51.9H125.577V55.176C125.577 55.552 125.653 55.808 125.805 55.944C125.957 56.072 126.225 56.136 126.609 56.136H127.233V57H126.321ZM130.889 57.144C130.177 57.144 129.585 56.964 129.113 56.604C128.641 56.244 128.365 55.756 128.285 55.14H129.317C129.381 55.452 129.545 55.724 129.809 55.956C130.081 56.18 130.445 56.292 130.901 56.292C131.325 56.292 131.637 56.204 131.837 56.028C132.037 55.844 132.137 55.628 132.137 55.38C132.137 55.02 132.005 54.78 131.741 54.66C131.485 54.54 131.121 54.432 130.649 54.336C130.329 54.272 130.009 54.18 129.689 54.06C129.369 53.94 129.101 53.772 128.885 53.556C128.669 53.332 128.561 53.04 128.561 52.68C128.561 52.16 128.753 51.736 129.137 51.408C129.529 51.072 130.057 50.904 130.721 50.904C131.353 50.904 131.869 51.064 132.269 51.384C132.677 51.696 132.913 52.144 132.977 52.728H131.981C131.941 52.424 131.809 52.188 131.585 52.02C131.369 51.844 131.077 51.756 130.709 51.756C130.349 51.756 130.069 51.832 129.869 51.984C129.677 52.136 129.581 52.336 129.581 52.584C129.581 52.824 129.705 53.012 129.953 53.148C130.209 53.284 130.553 53.4 130.985 53.496C131.353 53.576 131.701 53.676 132.029 53.796C132.365 53.908 132.637 54.08 132.845 54.312C133.061 54.536 133.169 54.864 133.169 55.296C133.177 55.832 132.973 56.276 132.557 56.628C132.149 56.972 131.593 57.144 130.889 57.144ZM140.521 57.144C139.905 57.144 139.369 57.032 138.913 56.808C138.457 56.584 138.105 56.272 137.857 55.872C137.609 55.472 137.485 55.008 137.485 54.48H138.541C138.541 54.808 138.617 55.112 138.769 55.392C138.921 55.664 139.141 55.884 139.429 56.052C139.725 56.212 140.089 56.292 140.521 56.292C141.089 56.292 141.529 56.156 141.841 55.884C142.153 55.612 142.309 55.272 142.309 54.864C142.309 54.528 142.237 54.26 142.093 54.06C141.949 53.852 141.753 53.684 141.505 53.556C141.265 53.428 140.985 53.316 140.665 53.22C140.353 53.124 140.025 53.016 139.681 52.896C139.033 52.672 138.553 52.396 138.241 52.068C137.929 51.732 137.773 51.296 137.773 50.76C137.765 50.312 137.869 49.916 138.085 49.572C138.301 49.22 138.605 48.948 138.997 48.756C139.397 48.556 139.869 48.456 140.413 48.456C140.949 48.456 141.413 48.556 141.805 48.756C142.205 48.956 142.513 49.232 142.729 49.584C142.953 49.936 143.069 50.336 143.077 50.784H142.021C142.021 50.552 141.961 50.324 141.841 50.1C141.721 49.868 141.537 49.68 141.289 49.536C141.049 49.392 140.745 49.32 140.377 49.32C139.921 49.312 139.545 49.428 139.249 49.668C138.961 49.908 138.817 50.24 138.817 50.664C138.817 51.024 138.917 51.3 139.117 51.492C139.325 51.684 139.613 51.844 139.981 51.972C140.349 52.092 140.773 52.232 141.253 52.392C141.653 52.536 142.013 52.704 142.333 52.896C142.653 53.088 142.901 53.336 143.077 53.64C143.261 53.944 143.353 54.332 143.353 54.804C143.353 55.204 143.249 55.584 143.041 55.944C142.833 56.296 142.517 56.584 142.093 56.808C141.677 57.032 141.153 57.144 140.521 57.144ZM145.335 49.728C145.135 49.728 144.967 49.664 144.831 49.536C144.703 49.4 144.639 49.232 144.639 49.032C144.639 48.84 144.703 48.68 144.831 48.552C144.967 48.424 145.135 48.36 145.335 48.36C145.527 48.36 145.691 48.424 145.827 48.552C145.963 48.68 146.031 48.84 146.031 49.032C146.031 49.232 145.963 49.4 145.827 49.536C145.691 49.664 145.527 49.728 145.335 49.728ZM144.831 57V51.048H145.839V57H144.831ZM147.594 57V51.048H148.506L148.578 51.912C148.77 51.592 149.026 51.344 149.346 51.168C149.666 50.992 150.026 50.904 150.426 50.904C150.898 50.904 151.302 51 151.638 51.192C151.982 51.384 152.246 51.676 152.43 52.068C152.638 51.708 152.922 51.424 153.282 51.216C153.65 51.008 154.046 50.904 154.47 50.904C155.182 50.904 155.75 51.12 156.174 51.552C156.598 51.976 156.81 52.632 156.81 53.52V57H155.814V53.628C155.814 53.012 155.69 52.548 155.442 52.236C155.194 51.924 154.838 51.768 154.374 51.768C153.894 51.768 153.494 51.956 153.174 52.332C152.862 52.7 152.706 53.228 152.706 53.916V57H151.698V53.628C151.698 53.012 151.574 52.548 151.326 52.236C151.078 51.924 150.722 51.768 150.258 51.768C149.786 51.768 149.39 51.956 149.07 52.332C148.758 52.7 148.602 53.228 148.602 53.916V57H147.594ZM158.328 59.64V51.048H159.24L159.336 52.032C159.528 51.744 159.8 51.484 160.152 51.252C160.512 51.02 160.968 50.904 161.52 50.904C162.112 50.904 162.628 51.04 163.068 51.312C163.508 51.584 163.848 51.956 164.088 52.428C164.336 52.9 164.46 53.436 164.46 54.036C164.46 54.636 164.336 55.172 164.088 55.644C163.848 56.108 163.504 56.476 163.056 56.748C162.616 57.012 162.1 57.144 161.508 57.144C161.02 57.144 160.584 57.044 160.2 56.844C159.824 56.644 159.536 56.364 159.336 56.004V59.64H158.328ZM161.4 56.268C161.8 56.268 162.152 56.176 162.456 55.992C162.76 55.8 163 55.536 163.176 55.2C163.352 54.864 163.44 54.472 163.44 54.024C163.44 53.576 163.352 53.184 163.176 52.848C163 52.512 162.76 52.252 162.456 52.068C162.152 51.876 161.8 51.78 161.4 51.78C161 51.78 160.648 51.876 160.344 52.068C160.04 52.252 159.8 52.512 159.624 52.848C159.448 53.184 159.36 53.576 159.36 54.024C159.36 54.472 159.448 54.864 159.624 55.2C159.8 55.536 160.04 55.8 160.344 55.992C160.648 56.176 161 56.268 161.4 56.268ZM165.863 57V48.36H166.871V57H165.863ZM171.199 57.144C170.631 57.144 170.127 57.016 169.687 56.76C169.247 56.496 168.899 56.132 168.643 55.668C168.395 55.204 168.271 54.656 168.271 54.024C168.271 53.4 168.395 52.856 168.643 52.392C168.891 51.92 169.235 51.556 169.675 51.3C170.123 51.036 170.639 50.904 171.223 50.904C171.799 50.904 172.295 51.036 172.711 51.3C173.135 51.556 173.459 51.896 173.683 52.32C173.907 52.744 174.019 53.2 174.019 53.688C174.019 53.776 174.015 53.864 174.007 53.952C174.007 54.04 174.007 54.14 174.007 54.252H169.267C169.291 54.708 169.395 55.088 169.579 55.392C169.771 55.688 170.007 55.912 170.287 56.064C170.575 56.216 170.879 56.292 171.199 56.292C171.615 56.292 171.963 56.196 172.243 56.004C172.523 55.812 172.727 55.552 172.855 55.224H173.851C173.691 55.776 173.383 56.236 172.927 56.604C172.479 56.964 171.903 57.144 171.199 57.144ZM171.199 51.756C170.719 51.756 170.291 51.904 169.915 52.2C169.547 52.488 169.335 52.912 169.279 53.472H173.023C172.999 52.936 172.815 52.516 172.471 52.212C172.127 51.908 171.703 51.756 171.199 51.756ZM175.355 57V51.048H176.267L176.351 52.188C176.535 51.796 176.815 51.484 177.191 51.252C177.567 51.02 178.031 50.904 178.583 50.904V51.96H178.307C177.955 51.96 177.631 52.024 177.335 52.152C177.039 52.272 176.803 52.48 176.627 52.776C176.451 53.072 176.363 53.48 176.363 54V57H175.355ZM182.811 57.144C182.235 57.144 181.711 57.032 181.239 56.808C180.775 56.576 180.403 56.22 180.123 55.74C179.843 55.26 179.703 54.648 179.703 53.904V48.6H180.711V53.916C180.711 54.732 180.907 55.324 181.299 55.692C181.691 56.06 182.203 56.244 182.835 56.244C183.467 56.244 183.975 56.06 184.359 55.692C184.743 55.324 184.935 54.732 184.935 53.916V48.6H185.943V53.904C185.943 54.648 185.803 55.26 185.523 55.74C185.243 56.22 184.867 56.576 184.395 56.808C183.923 57.032 183.395 57.144 182.811 57.144ZM189.87 57.144C189.158 57.144 188.566 56.964 188.094 56.604C187.622 56.244 187.346 55.756 187.266 55.14H188.298C188.362 55.452 188.526 55.724 188.79 55.956C189.062 56.18 189.426 56.292 189.882 56.292C190.306 56.292 190.618 56.204 190.818 56.028C191.018 55.844 191.118 55.628 191.118 55.38C191.118 55.02 190.986 54.78 190.722 54.66C190.466 54.54 190.102 54.432 189.63 54.336C189.31 54.272 188.99 54.18 188.67 54.06C188.35 53.94 188.082 53.772 187.866 53.556C187.65 53.332 187.542 53.04 187.542 52.68C187.542 52.16 187.734 51.736 188.118 51.408C188.51 51.072 189.038 50.904 189.702 50.904C190.334 50.904 190.85 51.064 191.25 51.384C191.658 51.696 191.894 52.144 191.958 52.728H190.962C190.922 52.424 190.79 52.188 190.566 52.02C190.35 51.844 190.058 51.756 189.69 51.756C189.33 51.756 189.05 51.832 188.85 51.984C188.658 52.136 188.562 52.336 188.562 52.584C188.562 52.824 188.686 53.012 188.934 53.148C189.19 53.284 189.534 53.4 189.966 53.496C190.334 53.576 190.682 53.676 191.01 53.796C191.346 53.908 191.618 54.08 191.826 54.312C192.042 54.536 192.15 54.864 192.15 55.296C192.158 55.832 191.954 56.276 191.538 56.628C191.13 56.972 190.574 57.144 189.87 57.144ZM194.202 49.728C194.002 49.728 193.834 49.664 193.698 49.536C193.57 49.4 193.506 49.232 193.506 49.032C193.506 48.84 193.57 48.68 193.698 48.552C193.834 48.424 194.002 48.36 194.202 48.36C194.394 48.36 194.558 48.424 194.694 48.552C194.83 48.68 194.898 48.84 194.898 49.032C194.898 49.232 194.83 49.4 194.694 49.536C194.558 49.664 194.394 49.728 194.202 49.728ZM193.698 57V51.048H194.706V57H193.698ZM196.461 57V51.048H197.373L197.433 52.116C197.625 51.74 197.901 51.444 198.261 51.228C198.621 51.012 199.029 50.904 199.485 50.904C200.189 50.904 200.749 51.12 201.165 51.552C201.589 51.976 201.801 52.632 201.801 53.52V57H200.793V53.628C200.793 52.388 200.281 51.768 199.257 51.768C198.745 51.768 198.317 51.956 197.973 52.332C197.637 52.7 197.469 53.228 197.469 53.916V57H196.461ZM205.68 55.128C205.344 55.128 205.036 55.084 204.756 54.996L204.156 55.56C204.244 55.624 204.352 55.68 204.48 55.728C204.616 55.768 204.808 55.808 205.056 55.848C205.304 55.88 205.652 55.916 206.1 55.956C206.9 56.012 207.472 56.196 207.816 56.508C208.16 56.82 208.332 57.228 208.332 57.732C208.332 58.076 208.236 58.404 208.044 58.716C207.86 59.028 207.572 59.284 207.18 59.484C206.796 59.684 206.3 59.784 205.692 59.784C205.156 59.784 204.68 59.712 204.264 59.568C203.848 59.432 203.524 59.22 203.292 58.932C203.06 58.652 202.944 58.296 202.944 57.864C202.944 57.64 203.004 57.396 203.124 57.132C203.244 56.876 203.468 56.632 203.796 56.4C203.62 56.328 203.468 56.252 203.34 56.172C203.22 56.084 203.108 55.988 203.004 55.884V55.608L204.024 54.6C203.552 54.2 203.316 53.672 203.316 53.016C203.316 52.624 203.408 52.268 203.592 51.948C203.776 51.628 204.044 51.376 204.396 51.192C204.748 51 205.176 50.904 205.68 50.904C206.024 50.904 206.336 50.952 206.616 51.048H208.812V51.804L207.696 51.852C207.928 52.188 208.044 52.576 208.044 53.016C208.044 53.408 207.948 53.764 207.756 54.084C207.572 54.404 207.304 54.66 206.952 54.852C206.608 55.036 206.184 55.128 205.68 55.128ZM205.68 54.3C206.104 54.3 206.44 54.192 206.688 53.976C206.944 53.752 207.072 53.432 207.072 53.016C207.072 52.608 206.944 52.296 206.688 52.08C206.44 51.856 206.104 51.744 205.68 51.744C205.248 51.744 204.904 51.856 204.648 52.08C204.4 52.296 204.276 52.608 204.276 53.016C204.276 53.432 204.4 53.752 204.648 53.976C204.904 54.192 205.248 54.3 205.68 54.3ZM203.928 57.768C203.928 58.168 204.096 58.464 204.432 58.656C204.768 58.856 205.188 58.956 205.692 58.956C206.188 58.956 206.584 58.848 206.88 58.632C207.184 58.416 207.336 58.128 207.336 57.768C207.336 57.512 207.232 57.288 207.024 57.096C206.816 56.912 206.432 56.804 205.872 56.772C205.432 56.74 205.052 56.7 204.732 56.652C204.404 56.828 204.188 57.016 204.084 57.216C203.98 57.424 203.928 57.608 203.928 57.768ZM212.657 57L215.753 48.6H216.821L219.905 57H218.837L218.069 54.84H214.493L213.713 57H212.657ZM214.793 54.024H217.769L216.281 49.872L214.793 54.024ZM221.094 57V51.048H222.006L222.09 52.188C222.274 51.796 222.554 51.484 222.93 51.252C223.306 51.02 223.77 50.904 224.322 50.904V51.96H224.046C223.694 51.96 223.37 52.024 223.074 52.152C222.778 52.272 222.542 52.48 222.366 52.776C222.19 53.072 222.102 53.48 222.102 54V57H221.094ZM227.805 57C227.261 57 226.833 56.868 226.521 56.604C226.209 56.34 226.053 55.864 226.053 55.176V51.9H225.021V51.048H226.053L226.185 49.62H227.061V51.048H228.813V51.9H227.061V55.176C227.061 55.552 227.137 55.808 227.289 55.944C227.441 56.072 227.709 56.136 228.093 56.136H228.717V57H227.805ZM230.706 49.728C230.506 49.728 230.338 49.664 230.202 49.536C230.074 49.4 230.01 49.232 230.01 49.032C230.01 48.84 230.074 48.68 230.202 48.552C230.338 48.424 230.506 48.36 230.706 48.36C230.898 48.36 231.062 48.424 231.198 48.552C231.334 48.68 231.402 48.84 231.402 49.032C231.402 49.232 231.334 49.4 231.198 49.536C231.062 49.664 230.898 49.728 230.706 49.728ZM230.202 57V51.048H231.21V57H230.202ZM233.289 57V51.9H232.389V51.048H233.289V50.016C233.289 49.44 233.433 49.02 233.721 48.756C234.009 48.492 234.429 48.36 234.981 48.36H235.581V49.224H235.137C234.833 49.224 234.617 49.288 234.489 49.416C234.361 49.536 234.297 49.744 234.297 50.04V51.048H237.993V57H236.985V51.9H234.297V57H233.289ZM237.501 49.908C237.309 49.908 237.145 49.844 237.009 49.716C236.873 49.58 236.805 49.412 236.805 49.212C236.805 49.02 236.873 48.86 237.009 48.732C237.145 48.604 237.309 48.54 237.501 48.54C237.701 48.54 237.865 48.604 237.993 48.732C238.129 48.86 238.197 49.02 238.197 49.212C238.197 49.412 238.129 49.58 237.993 49.716C237.865 49.844 237.701 49.908 237.501 49.908ZM242.509 57.144C241.941 57.144 241.429 57.016 240.973 56.76C240.525 56.496 240.169 56.132 239.905 55.668C239.649 55.196 239.521 54.648 239.521 54.024C239.521 53.4 239.649 52.856 239.905 52.392C240.169 51.92 240.525 51.556 240.973 51.3C241.429 51.036 241.941 50.904 242.509 50.904C243.213 50.904 243.805 51.088 244.285 51.456C244.773 51.824 245.081 52.316 245.209 52.932H244.177C244.097 52.564 243.901 52.28 243.589 52.08C243.277 51.872 242.913 51.768 242.497 51.768C242.161 51.768 241.845 51.852 241.549 52.02C241.253 52.188 241.013 52.44 240.829 52.776C240.645 53.112 240.553 53.528 240.553 54.024C240.553 54.52 240.645 54.936 240.829 55.272C241.013 55.608 241.253 55.864 241.549 56.04C241.845 56.208 242.161 56.292 242.497 56.292C242.913 56.292 243.277 56.192 243.589 55.992C243.901 55.784 244.097 55.492 244.177 55.116H245.209C245.089 55.716 244.785 56.204 244.297 56.58C243.809 56.956 243.213 57.144 242.509 57.144ZM247.229 49.728C247.029 49.728 246.861 49.664 246.725 49.536C246.597 49.4 246.533 49.232 246.533 49.032C246.533 48.84 246.597 48.68 246.725 48.552C246.861 48.424 247.029 48.36 247.229 48.36C247.421 48.36 247.585 48.424 247.721 48.552C247.857 48.68 247.925 48.84 247.925 49.032C247.925 49.232 247.857 49.4 247.721 49.536C247.585 49.664 247.421 49.728 247.229 49.728ZM246.725 57V51.048H247.733V57H246.725ZM251.468 57.144C250.972 57.144 250.56 57.06 250.232 56.892C249.904 56.724 249.66 56.5 249.5 56.22C249.34 55.94 249.26 55.636 249.26 55.308C249.26 54.7 249.492 54.232 249.956 53.904C250.42 53.576 251.052 53.412 251.852 53.412H253.46V53.34C253.46 52.82 253.324 52.428 253.052 52.164C252.78 51.892 252.416 51.756 251.96 51.756C251.568 51.756 251.228 51.856 250.94 52.056C250.66 52.248 250.484 52.532 250.412 52.908H249.38C249.42 52.476 249.564 52.112 249.812 51.816C250.068 51.52 250.384 51.296 250.76 51.144C251.136 50.984 251.536 50.904 251.96 50.904C252.792 50.904 253.416 51.128 253.832 51.576C254.256 52.016 254.468 52.604 254.468 53.34V57H253.568L253.508 55.932C253.34 56.268 253.092 56.556 252.764 56.796C252.444 57.028 252.012 57.144 251.468 57.144ZM251.624 56.292C252.008 56.292 252.336 56.192 252.608 55.992C252.888 55.792 253.1 55.532 253.244 55.212C253.388 54.892 253.46 54.556 253.46 54.204V54.192H251.936C251.344 54.192 250.924 54.296 250.676 54.504C250.436 54.704 250.316 54.956 250.316 55.26C250.316 55.572 250.428 55.824 250.652 56.016C250.884 56.2 251.208 56.292 251.624 56.292ZM255.98 57V48.36H256.988V57H255.98ZM261.876 57V48.6H262.884V57H261.876ZM264.605 57V51.048H265.517L265.577 52.116C265.769 51.74 266.045 51.444 266.405 51.228C266.765 51.012 267.173 50.904 267.629 50.904C268.333 50.904 268.893 51.12 269.309 51.552C269.733 51.976 269.945 52.632 269.945 53.52V57H268.937V53.628C268.937 52.388 268.425 51.768 267.401 51.768C266.889 51.768 266.461 51.956 266.117 52.332C265.781 52.7 265.613 53.228 265.613 53.916V57H264.605ZM273.825 57C273.281 57 272.853 56.868 272.541 56.604C272.229 56.34 272.073 55.864 272.073 55.176V51.9H271.041V51.048H272.073L272.205 49.62H273.081V51.048H274.833V51.9H273.081V55.176C273.081 55.552 273.157 55.808 273.309 55.944C273.461 56.072 273.729 56.136 274.113 56.136H274.737V57H273.825ZM278.625 57.144C278.057 57.144 277.553 57.016 277.113 56.76C276.673 56.496 276.325 56.132 276.069 55.668C275.821 55.204 275.697 54.656 275.697 54.024C275.697 53.4 275.821 52.856 276.069 52.392C276.317 51.92 276.661 51.556 277.101 51.3C277.549 51.036 278.065 50.904 278.649 50.904C279.225 50.904 279.721 51.036 280.137 51.3C280.561 51.556 280.885 51.896 281.109 52.32C281.333 52.744 281.445 53.2 281.445 53.688C281.445 53.776 281.441 53.864 281.433 53.952C281.433 54.04 281.433 54.14 281.433 54.252H276.693C276.717 54.708 276.821 55.088 277.005 55.392C277.197 55.688 277.433 55.912 277.713 56.064C278.001 56.216 278.305 56.292 278.625 56.292C279.041 56.292 279.389 56.196 279.669 56.004C279.949 55.812 280.153 55.552 280.281 55.224H281.277C281.117 55.776 280.809 56.236 280.353 56.604C279.905 56.964 279.329 57.144 278.625 57.144ZM278.625 51.756C278.145 51.756 277.717 51.904 277.341 52.2C276.973 52.488 276.761 52.912 276.705 53.472H280.449C280.425 52.936 280.241 52.516 279.897 52.212C279.553 51.908 279.129 51.756 278.625 51.756ZM282.781 57V48.36H283.789V57H282.781ZM285.441 57V48.36H286.449V57H285.441ZM288.713 49.728C288.513 49.728 288.345 49.664 288.209 49.536C288.081 49.4 288.017 49.232 288.017 49.032C288.017 48.84 288.081 48.68 288.209 48.552C288.345 48.424 288.513 48.36 288.713 48.36C288.905 48.36 289.069 48.424 289.205 48.552C289.341 48.68 289.409 48.84 289.409 49.032C289.409 49.232 289.341 49.4 289.205 49.536C289.069 49.664 288.905 49.728 288.713 49.728ZM288.209 57V51.048H289.217V57H288.209ZM293.325 55.128C292.989 55.128 292.681 55.084 292.401 54.996L291.801 55.56C291.889 55.624 291.997 55.68 292.125 55.728C292.261 55.768 292.453 55.808 292.701 55.848C292.949 55.88 293.297 55.916 293.745 55.956C294.545 56.012 295.117 56.196 295.461 56.508C295.805 56.82 295.977 57.228 295.977 57.732C295.977 58.076 295.881 58.404 295.689 58.716C295.505 59.028 295.217 59.284 294.825 59.484C294.441 59.684 293.945 59.784 293.337 59.784C292.801 59.784 292.325 59.712 291.909 59.568C291.493 59.432 291.169 59.22 290.937 58.932C290.705 58.652 290.589 58.296 290.589 57.864C290.589 57.64 290.649 57.396 290.769 57.132C290.889 56.876 291.113 56.632 291.441 56.4C291.265 56.328 291.113 56.252 290.985 56.172C290.865 56.084 290.753 55.988 290.649 55.884V55.608L291.669 54.6C291.197 54.2 290.961 53.672 290.961 53.016C290.961 52.624 291.053 52.268 291.237 51.948C291.421 51.628 291.689 51.376 292.041 51.192C292.393 51 292.821 50.904 293.325 50.904C293.669 50.904 293.981 50.952 294.261 51.048H296.457V51.804L295.341 51.852C295.573 52.188 295.689 52.576 295.689 53.016C295.689 53.408 295.593 53.764 295.401 54.084C295.217 54.404 294.949 54.66 294.597 54.852C294.253 55.036 293.829 55.128 293.325 55.128ZM293.325 54.3C293.749 54.3 294.085 54.192 294.333 53.976C294.589 53.752 294.717 53.432 294.717 53.016C294.717 52.608 294.589 52.296 294.333 52.08C294.085 51.856 293.749 51.744 293.325 51.744C292.893 51.744 292.549 51.856 292.293 52.08C292.045 52.296 291.921 52.608 291.921 53.016C291.921 53.432 292.045 53.752 292.293 53.976C292.549 54.192 292.893 54.3 293.325 54.3ZM291.573 57.768C291.573 58.168 291.741 58.464 292.077 58.656C292.413 58.856 292.833 58.956 293.337 58.956C293.833 58.956 294.229 58.848 294.525 58.632C294.829 58.416 294.981 58.128 294.981 57.768C294.981 57.512 294.877 57.288 294.669 57.096C294.461 56.912 294.077 56.804 293.517 56.772C293.077 56.74 292.697 56.7 292.377 56.652C292.049 56.828 291.833 57.016 291.729 57.216C291.625 57.424 291.573 57.608 291.573 57.768ZM300.035 57.144C299.467 57.144 298.963 57.016 298.523 56.76C298.083 56.496 297.735 56.132 297.479 55.668C297.231 55.204 297.107 54.656 297.107 54.024C297.107 53.4 297.231 52.856 297.479 52.392C297.727 51.92 298.071 51.556 298.511 51.3C298.959 51.036 299.475 50.904 300.059 50.904C300.635 50.904 301.131 51.036 301.547 51.3C301.971 51.556 302.295 51.896 302.519 52.32C302.743 52.744 302.855 53.2 302.855 53.688C302.855 53.776 302.851 53.864 302.843 53.952C302.843 54.04 302.843 54.14 302.843 54.252H298.103C298.127 54.708 298.231 55.088 298.415 55.392C298.607 55.688 298.843 55.912 299.123 56.064C299.411 56.216 299.715 56.292 300.035 56.292C300.451 56.292 300.799 56.196 301.079 56.004C301.359 55.812 301.563 55.552 301.691 55.224H302.687C302.527 55.776 302.219 56.236 301.763 56.604C301.315 56.964 300.739 57.144 300.035 57.144ZM300.035 51.756C299.555 51.756 299.127 51.904 298.751 52.2C298.383 52.488 298.171 52.912 298.115 53.472H301.859C301.835 52.936 301.651 52.516 301.307 52.212C300.963 51.908 300.539 51.756 300.035 51.756ZM304.191 57V51.048H305.103L305.163 52.116C305.355 51.74 305.631 51.444 305.991 51.228C306.351 51.012 306.759 50.904 307.215 50.904C307.919 50.904 308.479 51.12 308.895 51.552C309.319 51.976 309.531 52.632 309.531 53.52V57H308.523V53.628C308.523 52.388 308.011 51.768 306.987 51.768C306.475 51.768 306.047 51.956 305.703 52.332C305.367 52.7 305.199 53.228 305.199 53.916V57H304.191ZM313.794 57.144C313.226 57.144 312.714 57.016 312.258 56.76C311.81 56.496 311.454 56.132 311.19 55.668C310.934 55.196 310.806 54.648 310.806 54.024C310.806 53.4 310.934 52.856 311.19 52.392C311.454 51.92 311.81 51.556 312.258 51.3C312.714 51.036 313.226 50.904 313.794 50.904C314.498 50.904 315.09 51.088 315.57 51.456C316.058 51.824 316.366 52.316 316.494 52.932H315.462C315.382 52.564 315.186 52.28 314.874 52.08C314.562 51.872 314.198 51.768 313.782 51.768C313.446 51.768 313.13 51.852 312.834 52.02C312.538 52.188 312.298 52.44 312.114 52.776C311.93 53.112 311.838 53.528 311.838 54.024C311.838 54.52 311.93 54.936 312.114 55.272C312.298 55.608 312.538 55.864 312.834 56.04C313.13 56.208 313.446 56.292 313.782 56.292C314.198 56.292 314.562 56.192 314.874 55.992C315.186 55.784 315.382 55.492 315.462 55.116H316.494C316.374 55.716 316.07 56.204 315.582 56.58C315.094 56.956 314.498 57.144 313.794 57.144ZM320.578 57.144C320.01 57.144 319.506 57.016 319.066 56.76C318.626 56.496 318.278 56.132 318.022 55.668C317.774 55.204 317.65 54.656 317.65 54.024C317.65 53.4 317.774 52.856 318.022 52.392C318.27 51.92 318.614 51.556 319.054 51.3C319.502 51.036 320.018 50.904 320.602 50.904C321.178 50.904 321.674 51.036 322.09 51.3C322.514 51.556 322.838 51.896 323.062 52.32C323.286 52.744 323.398 53.2 323.398 53.688C323.398 53.776 323.394 53.864 323.386 53.952C323.386 54.04 323.386 54.14 323.386 54.252H318.646C318.67 54.708 318.774 55.088 318.958 55.392C319.15 55.688 319.386 55.912 319.666 56.064C319.954 56.216 320.258 56.292 320.578 56.292C320.994 56.292 321.342 56.196 321.622 56.004C321.902 55.812 322.106 55.552 322.234 55.224H323.23C323.07 55.776 322.762 56.236 322.306 56.604C321.858 56.964 321.282 57.144 320.578 57.144ZM320.578 51.756C320.098 51.756 319.67 51.904 319.294 52.2C318.926 52.488 318.714 52.912 318.658 53.472H322.402C322.378 52.936 322.194 52.516 321.85 52.212C321.506 51.908 321.082 51.756 320.578 51.756Z" fill="#919EAB"/>
</svg>
